<svg xmlns="http://www.w3.org/2000/svg" xmlns:xlink="http://www.w3.org/1999/xlink" width="500" zoomAndPan="magnify" viewBox="0 0 375 149.999998" height="200" preserveAspectRatio="xMidYMid meet" version="1.0"><defs><g/></defs><g fill="#2ec4b6" fill-opacity="1"><g transform="translate(15.000002, 116.77147)"><g><path d="M 44.160156 1.910156 L 68.152344 -50.949219 L 92.144531 1.910156 L 136.402344 -95.585938 L 103.042969 -95.585938 C 100.941406 -95.585938 99.699219 -92.625 99.699219 -89.949219 C 99.699219 -79.910156 111.835938 -70.925781 111.835938 -54.960938 C 111.835938 -48.941406 110.210938 -45.210938 106.867188 -40.625 L 82.015625 -95.585938 L 47.984375 -95.585938 C 53.335938 -83.828125 63.851562 -62.609375 63.851562 -54.960938 C 63.851562 -48.941406 62.226562 -45.210938 58.882812 -40.625 L 34.027344 -95.585938 L 0 -95.585938 Z M 44.160156 1.910156 "/></g></g></g><g fill="#2ec4b6" fill-opacity="1"><g transform="translate(173.178863, 108.732176)"><g><path d="M 12.269531 0.738281 C 13.355469 0.738281 14.398438 0.652344 15.445312 0.523438 C 16.140625 0.433594 16.269531 0.21875 16.226562 -0.480469 C 16.226562 -1.042969 15.878906 -1.21875 15.398438 -1.304688 C 14.007812 -1.4375 12.617188 -1.21875 11.222656 -1.21875 C 9.917969 -1.175781 9.875 -1.175781 9.917969 -2.4375 C 10.09375 -6.265625 10.222656 -10.09375 10.441406 -13.878906 C 10.613281 -16.53125 10.875 -19.183594 11.007812 -21.882812 C 11.179688 -25.273438 11.222656 -28.667969 10.960938 -32.0625 C 10.917969 -32.714844 11.09375 -32.976562 11.746094 -32.976562 C 12.832031 -32.976562 13.878906 -33.105469 14.921875 -33.191406 C 15.3125 -33.191406 15.660156 -33.28125 16.007812 -33.453125 C 16.445312 -33.671875 16.488281 -33.976562 16.097656 -34.28125 C 15.703125 -34.585938 15.226562 -34.585938 14.789062 -34.542969 C 12.179688 -34.453125 9.527344 -34.628906 6.917969 -34.933594 C 5.351562 -35.148438 3.828125 -34.933594 2.347656 -34.28125 C 1.785156 -34.019531 1.261719 -33.714844 0.828125 -33.28125 C 0.566406 -33.0625 0.304688 -32.800781 0.480469 -32.453125 C 0.609375 -32.0625 1 -32.105469 1.304688 -32.0625 C 1.871094 -31.972656 2.347656 -32.191406 2.828125 -32.410156 C 3.566406 -32.800781 4.308594 -33.148438 5.132812 -33.191406 C 5.960938 -33.234375 6.089844 -33.105469 6.089844 -32.324219 C 6.046875 -31.625 6.003906 -30.929688 5.917969 -30.234375 C 5.308594 -24.492188 5.003906 -18.792969 4.828125 -13.050781 C 4.699219 -9.527344 4.828125 -5.960938 4.828125 -2.4375 C 4.828125 -2.21875 4.828125 -1.957031 4.828125 -1.695312 C 4.828125 -1.304688 4.65625 -1.085938 4.261719 -1.085938 C 3.957031 -1.042969 3.609375 -1.042969 3.261719 -1.042969 C 2.304688 -1 1.304688 -0.828125 0.347656 -0.652344 C -0.0429688 -0.566406 -0.304688 -0.304688 -0.261719 0.128906 C -0.21875 0.609375 -0.0429688 0.914062 0.480469 0.957031 C 0.957031 1 1.4375 1.042969 1.957031 1 C 3.609375 0.957031 5.308594 0.78125 7.003906 0.78125 C 8.742188 0.78125 10.527344 0.78125 12.269531 0.738281 Z M 12.269531 0.738281 "/></g></g></g><g fill="#2ec4b6" fill-opacity="1"><g transform="translate(198.06138, 108.732176)"><g><path d="M 8.570312 -29.148438 C 8.527344 -29.929688 8.484375 -30.710938 8.394531 -31.496094 C 8.265625 -32.367188 8.136719 -32.453125 7.265625 -32.453125 C 6.65625 -32.453125 6.046875 -32.410156 5.4375 -32.367188 C 4.089844 -32.277344 4.089844 -32.234375 3.828125 -30.972656 C 3.742188 -30.539062 3.699219 -30.105469 3.609375 -29.625 C 3.261719 -26.753906 3.089844 -23.839844 2.828125 -20.96875 C 2.261719 -14.746094 1.871094 -8.527344 2.394531 -2.261719 C 2.566406 0 2.394531 0.347656 5.351562 0.21875 C 6.527344 0.128906 6.699219 -0.0859375 6.699219 -1.261719 C 6.828125 -6.742188 7.4375 -12.222656 7.917969 -17.707031 C 8.308594 -21.882812 9.960938 -25.578125 12.484375 -28.929688 C 13.226562 -29.886719 14.09375 -30.667969 15.09375 -31.367188 C 16.3125 -32.234375 17.359375 -31.886719 17.921875 -30.496094 C 18.054688 -30.105469 18.140625 -29.710938 18.183594 -29.277344 C 18.664062 -25.796875 18.488281 -22.316406 18.011719 -18.878906 C 17.488281 -15.007812 17.140625 -11.136719 17.226562 -7.222656 C 17.226562 -4.699219 17.75 -2.261719 19.226562 -0.128906 C 20.011719 0.957031 20.96875 1.609375 22.273438 1.828125 C 24.710938 2.261719 26.929688 1.785156 28.710938 -0.0859375 C 29.363281 -0.738281 29.929688 -1.480469 30.453125 -2.304688 C 31.972656 -4.828125 32.976562 -7.613281 33.84375 -10.441406 C 34.105469 -11.3125 33.714844 -11.660156 32.84375 -11.484375 C 32.367188 -11.398438 32.324219 -11.007812 32.234375 -10.65625 C 31.671875 -8.960938 31.148438 -7.222656 30.410156 -5.566406 C 29.496094 -3.480469 28.40625 -1.523438 26.449219 -0.21875 C 24.316406 1.261719 23.1875 0.957031 22.144531 -1.390625 C 21.359375 -3.132812 21.140625 -4.960938 21.1875 -6.828125 C 21.273438 -10.746094 21.664062 -14.660156 22.054688 -18.574219 C 22.402344 -21.621094 22.535156 -24.621094 21.96875 -27.667969 C 21.75 -28.710938 21.445312 -29.710938 20.925781 -30.667969 C 19.707031 -32.800781 17.488281 -33.671875 15.140625 -32.976562 C 14.3125 -32.714844 13.53125 -32.324219 12.832031 -31.84375 C 11.613281 -30.972656 10.613281 -29.886719 9.699219 -28.710938 C 9.441406 -28.363281 9.265625 -27.929688 8.570312 -27.492188 C 8.570312 -28.191406 8.613281 -28.667969 8.570312 -29.148438 Z M 8.570312 -29.148438 "/></g></g></g><g fill="#2ec4b6" fill-opacity="1"><g transform="translate(235.515226, 108.732176)"><g><path d="M 8.570312 -29.148438 C 8.527344 -29.929688 8.484375 -30.710938 8.394531 -31.496094 C 8.265625 -32.367188 8.136719 -32.453125 7.265625 -32.453125 C 6.65625 -32.453125 6.046875 -32.410156 5.4375 -32.367188 C 4.089844 -32.277344 4.089844 -32.234375 3.828125 -30.972656 C 3.742188 -30.539062 3.699219 -30.105469 3.609375 -29.625 C 3.261719 -26.753906 3.089844 -23.839844 2.828125 -20.96875 C 2.261719 -14.746094 1.871094 -8.527344 2.394531 -2.261719 C 2.566406 0 2.394531 0.347656 5.351562 0.21875 C 6.527344 0.128906 6.699219 -0.0859375 6.699219 -1.261719 C 6.828125 -6.742188 7.4375 -12.222656 7.917969 -17.707031 C 8.308594 -21.882812 9.960938 -25.578125 12.484375 -28.929688 C 13.226562 -29.886719 14.09375 -30.667969 15.09375 -31.367188 C 16.3125 -32.234375 17.359375 -31.886719 17.921875 -30.496094 C 18.054688 -30.105469 18.140625 -29.710938 18.183594 -29.277344 C 18.664062 -25.796875 18.488281 -22.316406 18.011719 -18.878906 C 17.488281 -15.007812 17.140625 -11.136719 17.226562 -7.222656 C 17.226562 -4.699219 17.75 -2.261719 19.226562 -0.128906 C 20.011719 0.957031 20.96875 1.609375 22.273438 1.828125 C 24.710938 2.261719 26.929688 1.785156 28.710938 -0.0859375 C 29.363281 -0.738281 29.929688 -1.480469 30.453125 -2.304688 C 31.972656 -4.828125 32.976562 -7.613281 33.84375 -10.441406 C 34.105469 -11.3125 33.714844 -11.660156 32.84375 -11.484375 C 32.367188 -11.398438 32.324219 -11.007812 32.234375 -10.65625 C 31.671875 -8.960938 31.148438 -7.222656 30.410156 -5.566406 C 29.496094 -3.480469 28.40625 -1.523438 26.449219 -0.21875 C 24.316406 1.261719 23.1875 0.957031 22.144531 -1.390625 C 21.359375 -3.132812 21.140625 -4.960938 21.1875 -6.828125 C 21.273438 -10.746094 21.664062 -14.660156 22.054688 -18.574219 C 22.402344 -21.621094 22.535156 -24.621094 21.96875 -27.667969 C 21.75 -28.710938 21.445312 -29.710938 20.925781 -30.667969 C 19.707031 -32.800781 17.488281 -33.671875 15.140625 -32.976562 C 14.3125 -32.714844 13.53125 -32.324219 12.832031 -31.84375 C 11.613281 -30.972656 10.613281 -29.886719 9.699219 -28.710938 C 9.441406 -28.363281 9.265625 -27.929688 8.570312 -27.492188 C 8.570312 -28.191406 8.613281 -28.667969 8.570312 -29.148438 Z M 8.570312 -29.148438 "/></g></g></g><g fill="#fafafa" fill-opacity="1"><g transform="translate(168.629552, 60.479327)"><g><path d="M 37.761719 -30.453125 L 31.886719 -10.222656 L 23.707031 -30.105469 L 21.492188 -30.105469 L 13.484375 -10.179688 L 7.484375 -30.453125 L 0.523438 -30.453125 L 10.09375 0 L 15.964844 0 L 22.578125 -17.054688 L 29.363281 0 L 35.238281 0 L 44.632812 -30.453125 Z M 37.761719 -30.453125 "/></g></g></g><g fill="#fafafa" fill-opacity="1"><g transform="translate(220.220695, 60.479327)"><g><path d="M 17.921875 0.695312 C 27.1875 0.695312 34.105469 -6.132812 34.105469 -15.226562 C 34.105469 -24.273438 27.1875 -31.105469 17.921875 -31.105469 C 8.613281 -31.105469 1.652344 -24.230469 1.652344 -15.226562 C 1.652344 -6.175781 8.613281 0.695312 17.921875 0.695312 Z M 17.921875 -5.523438 C 12.484375 -5.523438 8.351562 -9.746094 8.351562 -15.226562 C 8.351562 -20.707031 12.484375 -24.882812 17.921875 -24.882812 C 23.359375 -24.882812 27.40625 -20.75 27.40625 -15.226562 C 27.40625 -9.699219 23.359375 -5.523438 17.921875 -5.523438 Z M 17.921875 -5.523438 "/></g></g></g><g fill="#fafafa" fill-opacity="1"><g transform="translate(262.328978, 60.479327)"><g><path d="M 20.230469 0 L 27.582031 0 L 20.835938 -11.484375 C 24.230469 -13.136719 26.40625 -16.355469 26.40625 -20.359375 C 26.40625 -26.230469 21.839844 -30.453125 15.746094 -30.453125 L 3.480469 -30.453125 L 3.480469 0 L 10.050781 0 L 10.050781 -10.355469 L 14.269531 -10.355469 Z M 10.050781 -24.363281 L 15.3125 -24.363281 C 18.097656 -24.363281 19.707031 -22.664062 19.707031 -20.402344 C 19.707031 -18.097656 18.097656 -16.445312 15.3125 -16.445312 L 10.050781 -16.445312 Z M 10.050781 -24.363281 "/></g></g></g><g fill="#fafafa" fill-opacity="1"><g transform="translate(297.390368, 60.479327)"><g><path d="M 28.84375 0 L 17.359375 -15.835938 L 27.710938 -30.453125 L 20.054688 -30.453125 L 10.050781 -16.355469 L 10.050781 -30.453125 L 3.480469 -30.453125 L 3.480469 0 L 10.050781 0 L 10.050781 -14.835938 L 20.792969 0 Z M 28.84375 0 "/></g></g></g></svg>