<svg xmlns="http://www.w3.org/2000/svg" xmlns:xlink="http://www.w3.org/1999/xlink" version="1.1" width="256" height="256" viewBox="0 0 256 256" xml:space="preserve">

<defs>
</defs>
<g style="stroke: none; stroke-width: 0; stroke-dasharray: none; stroke-linecap: butt; stroke-linejoin: miter; stroke-miterlimit: 10; fill: none; fill-rule: nonzero; opacity: 1;" transform="translate(1.4065934065934016 1.4065934065934016) scale(2.81 2.81)" >
	<path d="M 11.58 54.882 v 31.965 c 0 1.741 1.412 3.153 3.153 3.153 h 60.534 c 1.741 0 3.153 -1.412 3.153 -3.153 V 54.882 C 56.073 47.881 33.792 47.838 11.58 54.882 z" style="stroke: none; stroke-width: 1; stroke-dasharray: none; stroke-linecap: butt; stroke-linejoin: miter; stroke-miterlimit: 10; fill: rgb(184,53,53); fill-rule: nonzero; opacity: 1;" transform=" matrix(1 0 0 1 0 0) " stroke-linecap="round" />
	<path d="M 78.42 54.882 V 18.345 C 69.386 13.658 63.133 7.61 60.075 0 H 14.733 c -1.741 0 -3.153 1.412 -3.153 3.153 v 51.729 H 78.42 z" style="stroke: none; stroke-width: 1; stroke-dasharray: none; stroke-linecap: butt; stroke-linejoin: miter; stroke-miterlimit: 10; fill: rgb(233,233,224); fill-rule: nonzero; opacity: 1;" transform=" matrix(1 0 0 1 0 0) " stroke-linecap="round" />
	<path d="M 78.42 18.345 H 62.948 c -1.587 0 -2.873 -1.286 -2.873 -2.873 V 0 L 78.42 18.345 z" style="stroke: none; stroke-width: 1; stroke-dasharray: none; stroke-linecap: butt; stroke-linejoin: miter; stroke-miterlimit: 10; fill: rgb(217,215,202); fill-rule: nonzero; opacity: 1;" transform=" matrix(1 0 0 1 0 0) " stroke-linecap="round" />
	<path d="M 31.423 75.564 h -5.944 c -0.829 0 -1.5 -0.672 -1.5 -1.5 V 64.21 c 0 -0.828 0.671 -1.5 1.5 -1.5 h 5.944 c 2.392 0 4.338 1.946 4.338 4.339 v 4.177 C 35.762 73.618 33.815 75.564 31.423 75.564 z M 26.979 72.564 h 4.444 c 0.738 0 1.338 -0.601 1.338 -1.339 v -4.177 c 0 -0.738 -0.601 -1.339 -1.338 -1.339 h -4.444 V 72.564 z" style="stroke: none; stroke-width: 1; stroke-dasharray: none; stroke-linecap: butt; stroke-linejoin: miter; stroke-miterlimit: 10; fill: rgb(249,249,249); fill-rule: nonzero; opacity: 1;" transform=" matrix(1 0 0 1 0 0) " stroke-linecap="round" />
	<path d="M 25.479 82.312 c -0.829 0 -1.5 -0.672 -1.5 -1.5 v -6.747 c 0 -0.828 0.671 -1.5 1.5 -1.5 s 1.5 0.672 1.5 1.5 v 6.747 C 26.979 81.64 26.308 82.312 25.479 82.312 z" style="stroke: none; stroke-width: 1; stroke-dasharray: none; stroke-linecap: butt; stroke-linejoin: miter; stroke-miterlimit: 10; fill: rgb(249,249,249); fill-rule: nonzero; opacity: 1;" transform=" matrix(1 0 0 1 0 0) " stroke-linecap="round" />
	<path d="M 31.423 62.71 h -5.944 c -0.829 0 -1.5 0.672 -1.5 1.5 v 9.854 v 6.747 c 0 0.828 0.671 1.5 1.5 1.5 s 1.5 -0.672 1.5 -1.5 v -5.247 h 4.444 c 2.392 0 4.338 -1.946 4.338 -4.339 v -4.177 C 35.762 64.656 33.815 62.71 31.423 62.71 z M 32.762 71.226 c 0 0.738 -0.601 1.339 -1.338 1.339 h -4.444 V 65.71 h 4.444 c 0.738 0 1.338 0.601 1.338 1.339 V 71.226 z" style="stroke: none; stroke-width: 1; stroke-dasharray: none; stroke-linecap: butt; stroke-linejoin: miter; stroke-miterlimit: 10; fill: rgb(249,249,249); fill-rule: nonzero; opacity: 1;" transform=" matrix(1 0 0 1 0 0) " stroke-linecap="round" />
	<path d="M 47.221 62.71 h -5.944 c -0.829 0 -1.5 0.672 -1.5 1.5 v 9.854 v 6.747 c 0 0.828 0.671 1.5 1.5 1.5 s 1.5 -0.672 1.5 -1.5 v -5.247 h 4.444 c 2.392 0 4.338 -1.946 4.338 -4.339 v -4.177 C 51.559 64.656 49.612 62.71 47.221 62.71 z M 48.559 71.226 c 0 0.738 -0.601 1.339 -1.338 1.339 h -4.444 V 65.71 h 4.444 c 0.737 0 1.338 0.601 1.338 1.339 V 71.226 z" style="stroke: none; stroke-width: 1; stroke-dasharray: none; stroke-linecap: butt; stroke-linejoin: miter; stroke-miterlimit: 10; fill: rgb(249,249,249); fill-rule: nonzero; opacity: 1;" transform=" matrix(1 0 0 1 0 0) " stroke-linecap="round" />
	<path d="M 64.521 62.679 h -8.816 c -0.828 0 -1.5 0.672 -1.5 1.5 s 0.672 1.5 1.5 1.5 h 2.908 v 15.164 c 0 0.828 0.672 1.5 1.5 1.5 s 1.5 -0.672 1.5 -1.5 V 65.679 h 2.908 c 0.828 0 1.5 -0.672 1.5 -1.5 S 65.35 62.679 64.521 62.679 z" style="stroke: none; stroke-width: 1; stroke-dasharray: none; stroke-linecap: butt; stroke-linejoin: miter; stroke-miterlimit: 10; fill: rgb(249,249,249); fill-rule: nonzero; opacity: 1;" transform=" matrix(1 0 0 1 0 0) " stroke-linecap="round" />
</g>
</svg>