<svg xmlns="http://www.w3.org/2000/svg" xmlns:xlink="http://www.w3.org/1999/xlink" version="1.1" width="256" height="256" viewBox="0 0 256 256" xml:space="preserve">

<defs>
</defs>
<g style="stroke: none; stroke-width: 0; stroke-dasharray: none; stroke-linecap: butt; stroke-linejoin: miter; stroke-miterlimit: 10; fill: none; fill-rule: nonzero; opacity: 1;" transform="translate(1.4065934065934016 1.4065934065934016) scale(2.81 2.81)" >
	<path d="M 11.58 54.882 v 31.965 c 0 1.741 1.412 3.153 3.153 3.153 h 60.534 c 1.741 0 3.153 -1.412 3.153 -3.153 V 54.882 C 56.073 47.881 33.792 47.838 11.58 54.882 z" style="stroke: none; stroke-width: 1; stroke-dasharray: none; stroke-linecap: butt; stroke-linejoin: miter; stroke-miterlimit: 10; fill: rgb(184,53,53); fill-rule: nonzero; opacity: 1;" transform=" matrix(1 0 0 1 0 0) " stroke-linecap="round" />
	<path d="M 78.42 54.882 V 18.345 C 69.386 13.658 63.133 7.61 60.075 0 H 14.733 c -1.741 0 -3.153 1.412 -3.153 3.153 v 51.729 H 78.42 z" style="stroke: none; stroke-width: 1; stroke-dasharray: none; stroke-linecap: butt; stroke-linejoin: miter; stroke-miterlimit: 10; fill: rgb(233,233,224); fill-rule: nonzero; opacity: 1;" transform=" matrix(1 0 0 1 0 0) " stroke-linecap="round" />
	<path d="M 78.42 18.345 H 62.948 c -1.587 0 -2.873 -1.286 -2.873 -2.873 V 0 L 78.42 18.345 z" style="stroke: none; stroke-width: 1; stroke-dasharray: none; stroke-linecap: butt; stroke-linejoin: miter; stroke-miterlimit: 10; fill: rgb(217,215,202); fill-rule: nonzero; opacity: 1;" transform=" matrix(1 0 0 1 0 0) " stroke-linecap="round" />
	<path d="M 47.085 82.28 h -4.082 c -2.123 0 -3.85 -1.728 -3.85 -3.851 v -11.9 c 0 -2.123 1.727 -3.851 3.85 -3.851 h 4.082 c 2.123 0 3.851 1.728 3.851 3.851 v 11.9 C 50.936 80.553 49.208 82.28 47.085 82.28 z M 43.003 65.679 c -0.469 0 -0.85 0.382 -0.85 0.851 v 11.9 c 0 0.469 0.381 0.851 0.85 0.851 h 4.082 c 0.469 0 0.851 -0.382 0.851 -0.851 v -11.9 c 0 -0.469 -0.382 -0.851 -0.851 -0.851 H 43.003 z" style="stroke: none; stroke-width: 1; stroke-dasharray: none; stroke-linecap: butt; stroke-linejoin: miter; stroke-miterlimit: 10; fill: rgb(249,249,249); fill-rule: nonzero; opacity: 1;" transform=" matrix(1 0 0 1 0 0) " stroke-linecap="round" />
	<path d="M 31.02 82.28 h -5.653 c -0.829 0 -1.5 -0.672 -1.5 -1.5 V 64.179 c 0 -0.828 0.671 -1.5 1.5 -1.5 h 5.653 c 2.553 0 4.63 2.077 4.63 4.63 V 77.65 C 35.65 80.203 33.573 82.28 31.02 82.28 z M 26.867 79.28 h 4.153 c 0.899 0 1.63 -0.731 1.63 -1.63 V 67.309 c 0 -0.898 -0.731 -1.63 -1.63 -1.63 h -4.153 V 79.28 z" style="stroke: none; stroke-width: 1; stroke-dasharray: none; stroke-linecap: butt; stroke-linejoin: miter; stroke-miterlimit: 10; fill: rgb(249,249,249); fill-rule: nonzero; opacity: 1;" transform=" matrix(1 0 0 1 0 0) " stroke-linecap="round" />
	<path d="M 64.633 82.28 h -5.947 c -2.391 0 -4.336 -1.945 -4.336 -4.336 v -10.93 c 0 -2.391 1.945 -4.336 4.336 -4.336 h 5.947 c 0.828 0 1.5 0.672 1.5 1.5 s -0.672 1.5 -1.5 1.5 h -5.947 c -0.736 0 -1.336 0.6 -1.336 1.336 v 10.93 c 0 0.736 0.6 1.336 1.336 1.336 h 5.947 c 0.828 0 1.5 0.672 1.5 1.5 S 65.461 82.28 64.633 82.28 z" style="stroke: none; stroke-width: 1; stroke-dasharray: none; stroke-linecap: butt; stroke-linejoin: miter; stroke-miterlimit: 10; fill: rgb(249,249,249); fill-rule: nonzero; opacity: 1;" transform=" matrix(1 0 0 1 0 0) " stroke-linecap="round" />
</g>
</svg>