<svg xmlns="http://www.w3.org/2000/svg" xmlns:xlink="http://www.w3.org/1999/xlink" version="1.1" width="256" height="256" viewBox="0 0 256 256" xml:space="preserve">

<defs>
</defs>
<g style="stroke: none; stroke-width: 0; stroke-dasharray: none; stroke-linecap: butt; stroke-linejoin: miter; stroke-miterlimit: 10; fill: none; fill-rule: nonzero; opacity: 1;" transform="translate(1.4065934065934016 1.4065934065934016) scale(2.81 2.81)" >
	<path d="M 11.58 54.882 v 31.965 c 0 1.741 1.412 3.153 3.153 3.153 h 60.534 c 1.741 0 3.153 -1.412 3.153 -3.153 V 54.882 C 56.073 47.881 33.792 47.838 11.58 54.882 z" style="stroke: none; stroke-width: 1; stroke-dasharray: none; stroke-linecap: butt; stroke-linejoin: miter; stroke-miterlimit: 10; fill: rgb(184,53,53); fill-rule: nonzero; opacity: 1;" transform=" matrix(1 0 0 1 0 0) " stroke-linecap="round" />
	<path d="M 78.42 54.882 V 18.345 C 69.386 13.658 63.133 7.61 60.075 0 H 14.733 c -1.741 0 -3.153 1.412 -3.153 3.153 v 51.729 H 78.42 z" style="stroke: none; stroke-width: 1; stroke-dasharray: none; stroke-linecap: butt; stroke-linejoin: miter; stroke-miterlimit: 10; fill: rgb(233,233,224); fill-rule: nonzero; opacity: 1;" transform=" matrix(1 0 0 1 0 0) " stroke-linecap="round" />
	<path d="M 78.42 18.345 H 62.948 c -1.587 0 -2.873 -1.286 -2.873 -2.873 V 0 L 78.42 18.345 z" style="stroke: none; stroke-width: 1; stroke-dasharray: none; stroke-linecap: butt; stroke-linejoin: miter; stroke-miterlimit: 10; fill: rgb(217,215,202); fill-rule: nonzero; opacity: 1;" transform=" matrix(1 0 0 1 0 0) " stroke-linecap="round" />
	<path d="M 62.702 82.28 h -6.334 c -0.828 0 -1.5 -0.672 -1.5 -1.5 s 0.672 -1.5 1.5 -1.5 h 6.334 c 0.522 0 0.948 -0.426 0.948 -0.948 v -3.404 c 0 -0.522 -0.426 -0.948 -0.948 -0.948 h -3.886 c -2.177 0 -3.948 -1.771 -3.948 -3.948 v -3.404 c 0 -2.177 1.771 -3.948 3.948 -3.948 h 4.313 c 0.828 0 1.5 0.672 1.5 1.5 s -0.672 1.5 -1.5 1.5 h -4.313 c -0.522 0 -0.948 0.426 -0.948 0.948 v 3.404 c 0 0.522 0.426 0.948 0.948 0.948 h 3.886 c 2.177 0 3.948 1.771 3.948 3.948 v 3.404 C 66.65 80.509 64.879 82.28 62.702 82.28 z" style="stroke: none; stroke-width: 1; stroke-dasharray: none; stroke-linecap: butt; stroke-linejoin: miter; stroke-miterlimit: 10; fill: rgb(249,249,249); fill-rule: nonzero; opacity: 1;" transform=" matrix(1 0 0 1 0 0) " stroke-linecap="round" />
	<path d="M 49.898 82.343 h -5.969 c -2.397 0 -4.347 -1.949 -4.347 -4.346 V 64.179 c 0 -0.828 0.671 -1.5 1.5 -1.5 s 1.5 0.672 1.5 1.5 v 13.818 c 0 0.742 0.604 1.346 1.347 1.346 h 5.969 c 0.828 0 1.5 0.672 1.5 1.5 S 50.727 82.343 49.898 82.343 z" style="stroke: none; stroke-width: 1; stroke-dasharray: none; stroke-linecap: butt; stroke-linejoin: miter; stroke-miterlimit: 10; fill: rgb(249,249,249); fill-rule: nonzero; opacity: 1;" transform=" matrix(1 0 0 1 0 0) " stroke-linecap="round" />
	<path d="M 30.937 72.479 l 4.02 -7.6 c 0.388 -0.732 0.108 -1.64 -0.624 -2.027 c -0.732 -0.387 -1.64 -0.107 -2.027 0.625 l -3.066 5.795 l -3.066 -5.795 c -0.388 -0.732 -1.295 -1.012 -2.027 -0.625 c -0.732 0.388 -1.012 1.295 -0.624 2.027 l 4.02 7.6 l -4.02 7.6 c -0.388 0.732 -0.108 1.64 0.624 2.027 c 0.224 0.118 0.464 0.174 0.7 0.174 c 0.538 0 1.058 -0.29 1.327 -0.799 l 3.066 -5.795 l 3.066 5.795 c 0.269 0.509 0.789 0.799 1.327 0.799 c 0.236 0 0.477 -0.056 0.7 -0.174 c 0.732 -0.388 1.012 -1.295 0.624 -2.027 L 30.937 72.479 z" style="stroke: none; stroke-width: 1; stroke-dasharray: none; stroke-linecap: butt; stroke-linejoin: miter; stroke-miterlimit: 10; fill: rgb(249,249,249); fill-rule: nonzero; opacity: 1;" transform=" matrix(1 0 0 1 0 0) " stroke-linecap="round" />
</g>
</svg>